<svg width="24" height="19" viewBox="0 0 24 19" fill="none" xmlns="http://www.w3.org/2000/svg">
<path fill-rule="evenodd" clip-rule="evenodd" d="M12.9401 13.6234C12.8473 13.6234 12.7583 13.6603 12.6926 13.7259C12.627 13.7915 12.5901 13.8806 12.5901 13.9734C12.5901 14.0662 12.627 14.1552 12.6926 14.2209C12.7583 14.2865 12.8473 14.3234 12.9401 14.3234C14.5901 14.3234 14.0301 16.6234 12.7101 17.4034C11.7901 17.9434 10.6301 17.4034 10.5701 15.9934C10.5206 15.6426 10.5781 15.285 10.7351 14.9674C10.8921 14.6499 11.1413 14.387 11.4501 14.2134C11.5193 14.1801 11.5737 14.1223 11.6028 14.0512C11.6318 13.9801 11.6334 13.9007 11.6072 13.8285C11.5811 13.7563 11.529 13.6963 11.4612 13.6603C11.3934 13.6242 11.3146 13.6146 11.2401 13.6334C10.7657 13.8172 10.359 14.1419 10.0748 14.5639C9.7905 14.9858 9.6423 15.4847 9.65011 15.9934C9.56897 16.4534 9.6244 16.9271 9.80955 17.3559C9.9947 17.7847 10.3014 18.1499 10.6919 18.4063C11.0823 18.6627 11.5393 18.7991 12.0064 18.7986C12.4735 18.798 12.9302 18.6607 13.3201 18.4034C15.3001 17.1334 15.6701 13.5534 12.9401 13.6234Z" fill="black"/>
<path fill-rule="evenodd" clip-rule="evenodd" d="M11.4099 10.0434C10.5126 10.2103 9.64817 10.521 8.8499 10.9634C7.89733 11.605 7.13692 12.4933 6.6499 13.5334C6.6499 13.6156 6.68256 13.6945 6.7407 13.7526C6.79884 13.8107 6.87769 13.8434 6.9599 13.8434C7.2199 13.8434 7.1899 13.6534 7.3899 13.4134C7.91935 12.8105 8.54852 12.3031 9.2499 11.9134C11.6899 11.0434 13.1699 10.5634 15.9999 12.3234C16.0755 12.3657 16.1642 12.3784 16.2486 12.3591C16.3331 12.3398 16.4074 12.2899 16.4572 12.2189C16.5069 12.148 16.5286 12.0611 16.5181 11.9752C16.5075 11.8892 16.4654 11.8101 16.3999 11.7534C14.8899 10.6234 13.3799 9.7634 11.4099 10.0434Z" fill="black"/>
<path fill-rule="evenodd" clip-rule="evenodd" d="M17.4101 6.9734C15.4713 5.70612 13.1526 5.1512 10.8501 5.4034C9.51267 5.70517 8.21898 6.1756 7.00011 6.8034C5.87011 7.3334 3.70011 9.9434 3.72011 10.4034C3.72009 10.4437 3.72816 10.4835 3.74386 10.5206C3.75956 10.5576 3.78256 10.5912 3.81148 10.6192C3.84041 10.6471 3.87467 10.669 3.91223 10.6835C3.94979 10.698 3.98988 10.7047 4.03011 10.7034C4.31011 10.7034 4.24011 10.5134 4.49011 10.1834C5.3024 9.18781 6.28832 8.34758 7.40011 7.7034C8.55334 7.19366 9.76124 6.81788 11.0001 6.5834C13.0462 6.37541 15.1072 6.79389 16.9101 7.7834C19.6001 9.2334 19.8601 10.5634 20.3701 10.0734C20.4349 10.0063 20.4711 9.91667 20.4711 9.8234C20.4711 9.73014 20.4349 9.64051 20.3701 9.5734C19.5219 8.56073 18.5237 7.68391 17.4101 6.9734Z" fill="black"/>
<path fill-rule="evenodd" clip-rule="evenodd" d="M23.9 5.9934C22.6614 4.54165 21.1998 3.2961 19.57 2.3034C17.9137 1.30489 16.0968 0.601134 14.2 0.223403C10.39 -0.466597 8.29 0.523403 4.73 2.0734C3.16 2.7734 4.63275e-08 6.4634 4.63275e-08 7.1334C-2.23225e-05 7.17365 0.00805598 7.2135 0.0237539 7.25057C0.0394517 7.28763 0.0624481 7.32116 0.0913736 7.34915C0.120299 7.37714 0.154562 7.39903 0.192122 7.4135C0.229681 7.42798 0.26977 7.43474 0.31 7.4334C0.62 7.4334 0.47 7.2734 0.86 6.7334C2.0401 5.23667 3.47552 3.96036 5.1 2.9634C8.32 1.6934 10.61 0.763403 14 1.4034C15.7887 1.6861 17.5145 2.27829 19.1 3.1534C20.7021 4.03426 22.1509 5.16898 23.39 6.5134C23.459 6.58103 23.552 6.6185 23.6485 6.61756C23.7451 6.61663 23.8374 6.57736 23.905 6.5084C23.9726 6.43945 24.0101 6.34645 24.0092 6.24987C24.0082 6.15329 23.969 6.06103 23.9 5.9934Z" fill="black"/>
</svg>
