<svg width="21" height="25" viewBox="0 0 21 25" fill="none" xmlns="http://www.w3.org/2000/svg">
<path d="M20.1324 17.2485C19.9824 16.9085 19.7124 16.5385 19.5624 16.1685C19.4936 16.0399 19.4724 15.8912 19.5024 15.7485C19.7241 15.0518 19.8945 14.3399 20.0124 13.6185C20.1932 12.5598 20.3101 11.4912 20.3624 10.4185C20.4131 9.75276 20.4131 9.08417 20.3624 8.41847C20.337 7.95465 20.2599 7.49513 20.1324 7.04847C19.8034 5.90074 19.2493 4.82995 18.5024 3.89847C18.6018 3.77031 18.6889 3.63303 18.7624 3.48847C18.8404 3.28614 18.8909 3.07424 18.9124 2.85847C18.9949 2.28947 18.897 1.70892 18.6324 1.19847C18.3296 0.664919 17.8368 0.265033 17.2524 0.0784659C16.9107 -0.0131543 16.5525 -0.0247265 16.2056 0.0446492C15.8588 0.114025 15.5326 0.262479 15.2524 0.478466C15.0507 0.64243 14.8845 0.845847 14.7642 1.07626C14.6438 1.30667 14.5717 1.55923 14.5524 1.81847C14.306 1.80354 14.0588 1.80354 13.8124 1.81847C13.2828 1.89038 12.7629 2.02119 12.2624 2.20847C10.9487 2.72496 9.75435 3.5042 8.7524 4.49847C7.7688 5.43553 6.90855 6.49404 6.1924 7.64847C5.7424 8.35847 5.4224 9.21847 5.0024 9.99847C4.84065 10.3014 4.64252 10.5835 4.4124 10.8385C4.16615 11.1077 3.89118 11.3491 3.5924 11.5585C2.8424 12.0985 2.0124 12.4885 1.2624 13.0485C0.989695 13.235 0.729166 13.4388 0.4824 13.6585C0.290337 13.8311 0.136977 14.0424 0.0323999 14.2785C0.0127023 14.3203 0.00174276 14.3657 0.000191451 14.4119C-0.00135986 14.4581 0.00652967 14.5042 0.0233775 14.5472C0.0402254 14.5903 0.0656777 14.6294 0.0981783 14.6623C0.130679 14.6952 0.169545 14.7211 0.2124 14.7385C0.6524 14.9285 0.7424 14.1285 2.3524 13.5885C3.15949 13.3438 3.99125 13.1895 4.8324 13.1285C5.884 13.02 6.94476 13.0368 7.9924 13.1785C9.58905 13.3709 11.1653 13.7055 12.7024 14.1785C13.4723 14.3891 14.2117 14.6984 14.9024 15.0985C15.5948 15.5014 16.2219 16.0072 16.7624 16.5985C16.8221 16.6674 16.9067 16.7099 16.9977 16.7164C17.0886 16.723 17.1784 16.6931 17.2474 16.6335C17.3164 16.5738 17.3588 16.4892 17.3653 16.3982C17.3719 16.3073 17.3421 16.2174 17.2824 16.1485C16.7295 15.4668 16.0792 14.8704 15.3524 14.3785C14.627 13.8877 13.8403 13.4943 13.0124 13.2085C11.693 12.7361 10.3343 12.3814 8.9524 12.1485C7.54131 11.9235 6.10349 11.9235 4.6924 12.1485C4.3924 12.2085 4.0624 12.2785 3.6924 12.3685L4.0024 12.1685C4.36536 11.9334 4.70079 11.6583 5.0024 11.3485C5.27411 11.0437 5.50906 10.7081 5.7024 10.3485C6.1324 9.63847 6.4224 8.79847 6.9024 8.10847C7.61248 7.02418 8.45947 6.03602 9.4224 5.16847C10.3395 4.29783 11.4204 3.61802 12.6024 3.16847C13.037 3.02055 13.4862 2.91997 13.9424 2.86847C14.3789 2.81476 14.8212 2.83164 15.2524 2.91847C16.2124 3.19985 17.0526 3.79044 17.6424 4.59847C18.295 5.4198 18.7808 6.36078 19.0724 7.36847C19.1679 7.742 19.2282 8.12367 19.2524 8.50847C19.2926 9.1178 19.2926 9.72913 19.2524 10.3385C19.1924 11.1985 19.1224 12.0585 18.9924 12.9185C18.8679 13.7588 18.6773 14.5881 18.4224 15.3985C18.3169 15.7235 18.3169 16.0735 18.4224 16.3985C18.6208 16.8686 18.8479 17.3261 19.1024 17.7685C19.4685 18.4984 19.686 19.2938 19.7424 20.1085C19.7618 20.5797 19.609 21.0418 19.3124 21.4085C18.9 21.8621 18.381 22.2058 17.8024 22.4085C16.8706 22.7668 15.889 22.9793 14.8924 23.0385C13.9039 23.0461 12.9167 22.9658 11.9424 22.7985C10.953 22.6712 9.97392 22.474 9.0124 22.2085C8.0124 21.8685 6.9224 21.5185 5.9124 21.0785C5.24987 20.7971 4.61113 20.4626 4.0024 20.0785C3.04671 19.5344 2.19105 18.8309 1.4724 17.9985C1.04759 17.4358 0.759961 16.7818 0.6324 16.0885C0.606746 16.0206 0.55807 15.9638 0.494857 15.9281C0.431645 15.8924 0.357907 15.88 0.286498 15.8931C0.215089 15.9062 0.15054 15.9439 0.104105 15.9997C0.0576694 16.0555 0.032293 16.1259 0.0323999 16.1985C0.168746 16.9889 0.483374 17.7378 0.9524 18.3885C1.69252 19.2902 2.58214 20.0581 3.5824 20.6585C4.21958 21.0793 4.88822 21.4504 5.5824 21.7685C6.5824 22.2385 7.6824 22.6285 8.7224 22.9985C9.72736 23.3061 10.7534 23.5401 11.7924 23.6985C12.8345 23.8974 13.8916 24.0078 14.9524 24.0285C16.0546 23.9744 17.1429 23.7588 18.1824 23.3885C18.9454 23.1353 19.6329 22.6952 20.1824 22.1085C20.6549 21.5506 20.9073 20.8394 20.8924 20.1085C20.8387 19.113 20.5799 18.1393 20.1324 17.2485ZM15.4224 1.90847H15.2124C15.3105 1.63766 15.502 1.41073 15.7524 1.26847C15.9278 1.17429 16.1219 1.12007 16.3207 1.1097C16.5195 1.09932 16.7181 1.13305 16.9024 1.20847C17.2303 1.29897 17.5144 1.50496 17.7024 1.78847C17.9209 2.10033 18.0457 2.46807 18.0624 2.84847C18.0828 2.98437 18.0828 3.12256 18.0624 3.25847C18.0624 3.25847 18.0624 3.34847 18.0124 3.38847C17.3096 2.65599 16.4103 2.14206 15.4224 1.90847Z" fill="black"/>
<path d="M16.3324 20.8585C15.9075 21.0519 15.449 21.1606 14.9824 21.1785C14.911 21.1915 14.8464 21.2291 14.7999 21.2848C14.7534 21.3406 14.7279 21.4109 14.7279 21.4835C14.7279 21.5561 14.7534 21.6264 14.7999 21.6821C14.8464 21.7378 14.911 21.7755 14.9824 21.7885C15.6561 21.8007 16.3203 21.6278 16.9024 21.2885C17.054 21.1749 17.1701 21.0206 17.2374 20.8435C17.3047 20.6665 17.3203 20.474 17.2824 20.2885C17.218 19.9229 17.0633 19.5791 16.8324 19.2885C16.5461 18.9112 16.2097 18.5748 15.8324 18.2885C15.07 17.7108 14.2643 17.1926 13.4224 16.7385C12.5884 16.2994 11.7265 15.9153 10.8424 15.5885C9.61374 15.1355 8.34467 14.8006 7.05244 14.5885C6.18373 14.4433 5.30074 14.403 4.42243 14.4685C3.87934 14.529 3.35662 14.7101 2.89243 14.9985C2.70501 15.1004 2.54296 15.2432 2.41831 15.4163C2.29366 15.5894 2.20962 15.7884 2.17243 15.9985C2.15974 16.4223 2.29794 16.837 2.56243 17.1685C2.88345 17.5811 3.27233 17.9362 3.71243 18.2185L5.77243 19.5785C5.81052 19.6021 5.85288 19.618 5.89711 19.6253C5.94134 19.6325 5.98657 19.631 6.03022 19.6208C6.07386 19.6106 6.11506 19.5919 6.15148 19.5657C6.18789 19.5396 6.2188 19.5065 6.24243 19.4685C6.26607 19.4304 6.28198 19.388 6.28924 19.3438C6.29651 19.2996 6.29499 19.2543 6.28477 19.2107C6.27456 19.167 6.25585 19.1258 6.22971 19.0894C6.20357 19.053 6.17052 19.0221 6.13243 18.9985L4.13243 17.5585C3.86906 17.3539 3.63075 17.1189 3.42243 16.8585C3.23127 16.6585 3.12084 16.3949 3.11243 16.1185C3.11243 15.8985 3.36243 15.7885 3.57243 15.6985C3.87154 15.5769 4.18977 15.5092 4.51243 15.4985C5.31745 15.473 6.12273 15.5401 6.91243 15.6985C7.29243 15.7585 7.67243 15.8485 8.05244 15.9385C7.68951 16.3633 7.44115 16.8739 7.33089 17.4216C7.22063 17.9694 7.25214 18.5363 7.42243 19.0685C7.62369 19.5972 7.97036 20.0583 8.42244 20.3985C9.06585 20.8865 9.82969 21.1906 10.6324 21.2785C11.6118 21.343 12.5795 21.0359 13.3424 20.4185C13.9219 19.9193 14.331 19.2515 14.5124 18.5085C14.7824 18.6685 15.0624 18.8285 15.3324 19.0085C15.6747 19.2313 15.9872 19.4968 16.2624 19.7985C16.4225 19.972 16.539 20.1811 16.6024 20.4085C16.6324 20.6285 16.5024 20.7585 16.3324 20.8585ZM12.7424 19.6785C12.1586 20.081 11.4445 20.2489 10.7424 20.1485C10.1461 20.069 9.57905 19.8421 9.09244 19.4885C8.78119 19.2812 8.52679 18.9993 8.35244 18.6685C8.18982 18.2463 8.13753 17.7897 8.20052 17.3418C8.26352 16.8938 8.43971 16.4694 8.71244 16.1085C9.33244 16.2785 9.93244 16.4685 10.4724 16.6685C11.325 16.9516 12.1598 17.2855 12.9724 17.6685C13.2724 17.8085 13.5524 17.9685 13.8424 18.1185C13.6638 18.7484 13.2758 19.2986 12.7424 19.6785Z" fill="black"/>
</svg>
