<svg width="102" height="46" viewBox="0 0 102 46" fill="none" xmlns="http://www.w3.org/2000/svg">
<path d="M27.6069 17.251C29.901 17.2678 32.1221 18.0604 33.9067 19.5019H33.9058C36.0224 21.1922 37.3006 23.5244 37.3823 25.2314L37.4038 25.5517C37.4801 27.1536 37.0916 28.7457 36.2827 30.1357L36.2778 30.1455C35.3393 31.6112 33.8871 32.6742 32.2065 33.1269L32.2007 33.1289C31.7235 33.2433 31.2387 33.3246 30.7505 33.375L30.7515 33.376C29.9917 33.4709 29.2662 33.4802 28.8804 33.4814C28.7594 33.6525 28.6025 33.8987 28.4116 34.1924C28.1878 34.5366 27.9219 34.929 27.6343 35.2793L27.6353 35.2803C27.3865 35.586 27.0999 35.859 26.7817 36.0918L26.771 36.0996L26.7603 36.1055C25.8515 36.6374 24.839 36.9666 23.7915 37.0732L23.7925 37.0742C23.7909 37.0744 23.7892 37.074 23.7876 37.0742C23.7863 37.0743 23.785 37.075 23.7837 37.0752L23.7827 37.0742C23.5422 37.1067 23.2998 37.121 23.0571 37.1162L23.0581 37.1172C23.0562 37.1173 23.0542 37.1161 23.0522 37.1162C23.049 37.1161 23.0457 37.1172 23.0425 37.1172V37.1162C22.9347 37.1178 22.8284 37.0912 22.7349 37.0371C22.6369 36.9804 22.5568 36.8972 22.5044 36.7969C22.452 36.6964 22.4294 36.5826 22.439 36.4697C22.4486 36.3567 22.4895 36.2484 22.5581 36.1582L22.561 36.1553L22.689 35.9814C22.9737 35.5667 23.1612 35.092 23.2368 34.5928L23.2378 34.584L23.2397 34.5752C23.3233 34.2005 23.3236 33.8123 23.2407 33.4375C23.2321 33.4109 23.2228 33.3824 23.2173 33.3652C23.2161 33.3614 23.2145 33.3579 23.2134 33.3545C21.1992 32.6784 19.6398 32.0416 18.7319 30.998C17.8048 29.932 17.4181 28.4062 17.5649 25.9092L17.5659 25.8994L17.6206 25.4414C17.9529 23.1631 19.1116 21.0796 20.8843 19.5937L20.8862 19.5928L21.2456 19.3086C23.0713 17.9326 25.3096 17.2061 27.604 17.251L27.605 17.25V17.251L27.6079 17.25L27.6069 17.251ZM27.2671 18.6797C25.292 18.7296 23.3847 19.4344 21.8491 20.6894V20.6904C20.2235 22.0145 19.183 23.924 18.9517 26.0078C18.752 28.1525 18.9618 29.2604 19.7026 30.1494C20.0753 30.5966 20.5804 30.9428 21.2368 31.2646C21.7309 31.5069 22.3011 31.7306 22.9536 31.9726L23.6343 32.2226L23.645 32.2265H23.644C23.8 32.2912 23.9403 32.3891 24.0542 32.5137C24.1673 32.6373 24.2516 32.7846 24.3022 32.9443C24.4575 33.3903 24.5117 33.8656 24.4595 34.3349C24.4293 34.8748 24.3085 35.4041 24.106 35.9033C24.8346 35.7927 25.5379 35.5511 26.1812 35.1865C26.4921 34.9474 26.7674 34.6651 26.9966 34.3467L27.0015 34.3398L27.188 34.0879C27.3724 33.8286 27.5491 33.5536 27.7144 33.3037C27.8229 33.1396 27.9278 32.9852 28.0229 32.8584C28.1136 32.7376 28.2122 32.6185 28.312 32.5459C28.4378 32.4544 28.6028 32.4264 28.7446 32.414C28.8954 32.4009 29.0759 32.4023 29.2661 32.4053C29.6547 32.4114 30.1216 32.4244 30.6343 32.3623H30.6353L30.9653 32.3193C31.2932 32.27 31.618 32.2019 31.939 32.1181C33.1958 31.7551 34.2891 30.9821 35.0503 29.9287H35.0347L35.2534 29.5537C35.9998 28.2734 36.3298 26.7924 36.1978 25.3164L36.1968 25.3105C36.1062 23.9522 34.9834 22.0079 33.1196 20.5644L33.1177 20.5635C31.5641 19.3413 29.6442 18.6772 27.6675 18.6787H27.6626L27.2671 18.6797Z" fill="black" stroke="black" stroke-width="0.5"/>
<path d="M5.00461 35.5H2.88405V16.8457H15.7731V18.7343H5.00461V24.6984H13.4868V26.4876H5.00461V35.5ZM41.6417 35.5V16.8457H47.8046C49.395 16.8457 50.7314 17.0114 51.8138 17.3427C52.9182 17.652 53.7576 18.1931 54.3319 18.9663C54.9283 19.7394 55.2266 20.8107 55.2266 22.1802C55.2266 23.0638 55.0609 23.8811 54.7295 24.6321C54.4203 25.3611 53.9343 25.9464 53.2717 26.3882C52.6311 26.83 51.8248 27.0509 50.8529 27.0509C51.6481 27.0509 52.2666 27.2055 52.7084 27.5148C53.1502 27.8019 53.4705 28.1885 53.6693 28.6745C53.8681 29.1604 54.0006 29.6795 54.0669 30.2317C54.1331 30.784 54.1773 31.3251 54.1994 31.8553C54.2215 32.3854 54.2657 32.8493 54.3319 33.2469C54.4203 33.6445 54.597 33.9206 54.8621 34.0752C55.1271 34.2299 55.5248 34.2078 56.0549 34.009V35.4006C55.8561 35.5773 55.5468 35.6988 55.1271 35.7651C54.7295 35.8534 54.3099 35.8313 53.8681 35.6988C53.4263 35.5663 53.0508 35.2681 52.7415 34.8042C52.4544 34.3403 52.3108 33.6556 52.3108 32.7499C52.3108 31.6454 52.2666 30.7508 52.1782 30.0661C52.0899 29.3592 51.8911 28.818 51.5818 28.4425C51.2947 28.067 50.8419 27.8019 50.2234 27.6473C49.6049 27.4927 48.7765 27.4154 47.7383 27.4154C46.7001 27.4154 45.3858 27.4264 43.7954 27.4485V35.5H41.6417ZM43.7954 25.8249H48.1359C49.3067 25.8249 50.2675 25.7255 51.0186 25.5267C51.7917 25.3279 52.366 24.9856 52.7415 24.4996C53.117 23.9915 53.3048 23.2626 53.3048 22.3128C53.3048 21.1862 53.0729 20.3689 52.609 19.8609C52.1451 19.3528 51.4714 19.0325 50.5878 18.9C49.7264 18.7454 48.655 18.6681 47.3739 18.6681H43.7954V25.8249ZM67.3286 35.9639C64.8326 35.9639 62.9108 35.2349 61.5634 33.777C60.238 32.2971 59.5754 30.2207 59.5754 27.5479V16.8457H61.7622V27.5479C61.7622 28.6524 61.9058 29.6132 62.1929 30.4305C62.4801 31.2257 62.8666 31.8884 63.3526 32.4186C63.8606 32.9487 64.446 33.3353 65.1087 33.5782C65.7934 33.8212 66.5334 33.9427 67.3286 33.9427C68.4773 33.9427 69.4602 33.7329 70.2775 33.3132C71.1169 32.8714 71.7686 32.1756 72.2324 31.2257C72.6963 30.2759 72.9282 29.05 72.9282 27.5479V16.8457H75.1151V27.5479C75.1151 30.2649 74.4524 32.3523 73.127 33.8102C71.8238 35.246 69.891 35.9639 67.3286 35.9639ZM79.5268 35.5V16.8457H83.2046L89.2681 34.5391H89.3344L95.2984 16.8457H98.9763V35.5H96.8226L96.922 17.9391H96.8557L90.8254 35.5H87.6777L81.6473 17.9391H81.5811L81.6805 35.5H79.5268Z" fill="black"/>
</svg>
